G04*
G04 #@! TF.GenerationSoftware,Altium Limited,Altium Designer,20.1.10 (176)*
G04*
G04 Layer_Color=16711935*
%FSAX42Y42*%
%MOMM*%
G71*
G04*
G04 #@! TF.SameCoordinates,05C6C66F-C92C-4908-9B6B-627AEAEC3FAA*
G04*
G04*
G04 #@! TF.FilePolarity,Positive*
G04*
G01*
G75*
%ADD11C,0.25*%
D11*
X005726Y012867D02*
G03*
X005526Y013067I-000200J000000D01*
G01*
X010726Y022367D02*
G03*
X010926Y022167I000200J000000D01*
G01*
X017126Y013067D02*
G03*
X016926Y012867I000000J-000200D01*
G01*
X011726D02*
G03*
X011526Y013067I-000200J000000D01*
G01*
X011126D02*
G03*
X010926Y012867I000000J-000200D01*
G01*
X005726Y012667D02*
X010926D01*
X005726D02*
Y012867D01*
X005326Y013067D02*
X005526D01*
X005326D02*
Y022667D01*
X010726D01*
Y022367D02*
Y022667D01*
X017326Y013067D02*
Y022167D01*
X017126Y013067D02*
X017326D01*
X016926Y012667D02*
Y012867D01*
X011726Y012667D02*
X016926D01*
X011726D02*
Y012867D01*
X011126Y013067D02*
X011526D01*
X010926Y012667D02*
Y012867D01*
X015130Y021735D02*
X016476D01*
X015130D02*
Y022167D01*
X016476Y021735D02*
Y022167D01*
X010926Y022167D02*
X015130D01*
X016476D02*
X017326D01*
M02*
