M48
;Layer_Color=9474304
;FILE_FORMAT=4:2
METRIC
;TYPE=PLATED
T1F00S00C0.30
T2F00S00C0.70
T3F00S00C0.86
T4F00S00C0.90
T5F00S00C0.91
T6F00S00C2.50
T7F00S00C2.60
T8F00S00C4.00
T9F00S00C4.50
%
T01
X016609Y015571
Y015696
X016720Y015821
X016785Y015446
X014285
X014109Y015571
Y015696
X014220Y015821
X010795
X010684Y015696
Y015571
X010860Y015446
X008340Y015446
X008164Y015571
Y015696
X008275Y015821
X007847Y018445
Y018700
Y019075
Y019335
X007738Y019633
X006308Y019759
X005886Y019760
X006254Y019208
Y019081
Y018954
Y018827
Y018700
Y018573
Y018446
Y018319
X008145
X008210Y018573
X008275Y018954
X008340Y019208
X008774Y019208
Y019081
Y018954
Y018827
Y018700
Y018573
Y018446
Y018319
X008145Y017515
Y017390
Y017265
X008210Y017140
X010730Y017141
X010665Y017266
Y017391
Y017516
Y018319
X010730Y018573
X010795Y018954
X010860Y019208
X010666Y019633
X010258
X010367Y019335
Y019076
Y018701
Y018446
X011831Y019760
X008828Y019760
X008406Y019760
X008146Y019633
X012253Y019760
X012199Y019208
Y019081
Y018954
Y018827
Y018700
Y018573
Y018446
Y018319
X013792Y018446
Y018701
Y019076
Y019335
X013450Y019350
X013683Y019633
X014091
X014331Y019760
X014753Y019760
X014632Y019475
X014699Y019208
Y019081
Y018954
Y018827
Y018700
Y018573
Y018446
Y018319
X014090
X014155Y018573
X014220Y018954
X014285Y019208
X014090Y017516
Y017391
Y017266
X014155Y017141
X016655
X016590Y017266
Y017391
Y017516
Y018319
X016655Y018573
X016720Y018954
X016785Y019208
X016591Y019633
X016183
X016292Y019335
Y019076
Y018701
Y018446
X016183Y020014
X016591Y020015
X016282Y020798
X014753Y020546
Y020141
X014632Y019887
X014091Y020015
X013683Y020014
X013782Y020798
X014442Y021057
X012850Y021100
X012253Y020546
Y020141
X011831
Y020924
X010357Y020796
X010258Y020014
X010666Y020015
X008828Y020141
Y020546
X008406Y020924
Y020141
X008146Y020015
X007738Y020014
X007837Y020796
X006308Y020546
Y020141
X005886
Y020923
T02
X016445Y015071
X015744Y015321
X013945Y015071
X013244Y015321
X010520Y015071
X009819Y015321
X008000Y015071
X007299Y015321
Y017770
X007514Y018176
X007239Y019760
X006832Y019633
X009352Y019633
X009759Y019760
X010034Y018176
X009819Y017770
X010547Y017761
Y016898
X010520Y016071
X008000Y016071
X008027Y016897
Y017760
X013244Y017770
X013459Y018176
X013972Y017761
Y016898
X013945Y016071
X015744Y017770
X015684Y019760
X015277Y019633
X013184Y019760
X012777Y019633
X015959Y018176
X016472Y017761
Y016898
X016445Y016071
X016282Y020375
X016472Y020798
X015684Y020141
X015277Y020014
X013782Y020375
X013972Y020798
X013184Y020141
X012777Y020014
X010357Y020375
X010547Y020798
X009750Y020150
X009352Y020014
X008027Y020797
X007837Y020374
X007239Y020141
X006832Y020014
T03
X011980Y021684
X012180
X012380
X012580
X012780
Y021884
X012580
X012380
X012180
X011980
X012980
X013180
Y021684
X012980
X013380
X013580
Y021884
X013380
X013780
X013980
X014180
X014380
X014580
X014780
Y021684
X014580
X014380
X014180
X013980
X013780
X014980
Y021884
T04
X012796Y014875
X015296
X009371
X006851Y014874
Y016569
X006661Y016398
Y018093
X009181Y018093
Y016399
X009371Y016569
X012606Y016399
X012796Y016569
X012606Y018093
X015106
Y016399
X015296Y016569
T05
X013451Y012962
X013705
X013959
X014213
X014467
X014721
X014975
X015229
X015356Y013216
X015102
X014848
X014594
X014340
X014086
X013832
X013578
X013324
X013451Y013470
X013705
X013959
X014213
X014467
X014721
X014975
X015229
X015102Y013724
X014848
X014594
X014086
X013832
X013578
X009070
X008816
X008562
X008435Y013470
X008181
X008054Y013724
Y013216
X008308
X008562
X008816
X009070
X009324
X009197Y013470
X008943
X008689
Y012962
X008435
X008181
X008943
X009197
X007927
X007673
X007419
X007292Y013216
X007546
X007800
X007673Y013470
X007927
X007800Y013724
X007546
X007419Y013470
T06
X012925Y013267
X015757
X009725
X006893
T07
X005576Y016467
X005576Y019467
X017076
Y016467
T08
X011326Y016967
T09
X016926Y014367
X005726
X016926Y021567
X005726
M30
