G04*
G04 #@! TF.GenerationSoftware,Altium Limited,Altium Designer,20.1.10 (176)*
G04*
G04 Layer_Physical_Order=4*
G04 Layer_Color=16737819*
%FSAX42Y42*%
%MOMM*%
G71*
G04*
G04 #@! TF.SameCoordinates,05C6C66F-C92C-4908-9B6B-627AEAEC3FAA*
G04*
G04*
G04 #@! TF.FilePolarity,Positive*
G04*
G01*
G75*
%ADD11C,0.25*%
%ADD37R,2.54X0.81*%
%ADD38R,0.80X1.30*%
%ADD42O,2.29X0.70*%
%ADD43R,2.29X0.70*%
%ADD48C,0.30*%
%ADD49C,1.00*%
%ADD50C,0.50*%
%ADD52C,1.50*%
%ADD53C,3.25*%
%ADD54C,1.52*%
%ADD55C,1.37*%
%ADD56R,1.37X1.37*%
%ADD57C,6.50*%
%ADD58C,6.35*%
%ADD59C,3.81*%
%ADD60C,0.60*%
%ADD61C,1.00*%
%ADD62C,1.30*%
%ADD63C,0.75*%
%ADD64R,1.30X0.80*%
G36*
X005326Y022675D02*
X005808D01*
Y022014D01*
X006138D01*
Y021125D01*
X005808D01*
Y014801D01*
X006138D01*
Y013937D01*
X005808D01*
Y013073D01*
X005326D01*
Y022675D01*
D02*
G37*
G36*
X017326Y022167D02*
X016843D01*
Y022014D01*
X016513D01*
Y021125D01*
X016843D01*
Y014801D01*
X016513D01*
Y013937D01*
X016843D01*
Y013073D01*
X017326D01*
Y022167D01*
D02*
G37*
D11*
X013637Y019506D02*
X013683Y019552D01*
X013465Y019506D02*
X013637D01*
X013683Y019552D02*
Y019633D01*
X010258Y019552D02*
Y019633D01*
X010212Y019506D02*
X010258Y019552D01*
X010040Y019506D02*
X010212D01*
X008696Y019633D02*
X009050D01*
X016137Y019506D02*
X016183Y019552D01*
Y019633D01*
X015965Y019506D02*
X016137D01*
X014621Y019633D02*
X014975D01*
X012121D02*
X012475D01*
X006176Y019633D02*
X006530D01*
X007692Y019506D02*
X007738Y019552D01*
Y019633D01*
X007520Y019506D02*
X007692D01*
D37*
X009050Y020268D02*
D03*
Y020141D02*
D03*
X010040D02*
D03*
Y020268D02*
D03*
X009050Y020014D02*
D03*
Y019887D02*
D03*
Y019760D02*
D03*
Y019633D02*
D03*
Y019506D02*
D03*
X010040Y019760D02*
D03*
Y019633D02*
D03*
Y019887D02*
D03*
Y019506D02*
D03*
Y020014D02*
D03*
X012475Y020268D02*
D03*
Y020141D02*
D03*
X013465D02*
D03*
Y020268D02*
D03*
X012475Y020014D02*
D03*
Y019887D02*
D03*
Y019760D02*
D03*
Y019633D02*
D03*
Y019506D02*
D03*
X013465Y019760D02*
D03*
Y019633D02*
D03*
Y019887D02*
D03*
Y019506D02*
D03*
Y020014D02*
D03*
X015965D02*
D03*
Y019506D02*
D03*
Y019887D02*
D03*
Y019633D02*
D03*
Y019760D02*
D03*
X014975Y019506D02*
D03*
Y019633D02*
D03*
Y019760D02*
D03*
Y019887D02*
D03*
Y020014D02*
D03*
X015965Y020268D02*
D03*
Y020141D02*
D03*
X014975D02*
D03*
Y020268D02*
D03*
X006530Y020268D02*
D03*
Y020141D02*
D03*
X007520D02*
D03*
Y020268D02*
D03*
X006530Y020014D02*
D03*
Y019887D02*
D03*
Y019760D02*
D03*
Y019633D02*
D03*
Y019506D02*
D03*
X007520Y019760D02*
D03*
Y019633D02*
D03*
Y019887D02*
D03*
Y019506D02*
D03*
Y020014D02*
D03*
D38*
X010557Y019760D02*
D03*
X010367D02*
D03*
X008517Y020014D02*
D03*
X008707D02*
D03*
X008517Y019633D02*
D03*
X008707D02*
D03*
X010557Y020141D02*
D03*
X010367D02*
D03*
X010357Y020543D02*
D03*
X010547D02*
D03*
X010557Y018319D02*
D03*
X010367D02*
D03*
X010557Y018573D02*
D03*
X010367D02*
D03*
X010557Y018954D02*
D03*
X010367D02*
D03*
X010557Y019208D02*
D03*
X010367D02*
D03*
X008037Y020141D02*
D03*
X007847D02*
D03*
X008027Y020542D02*
D03*
X007837D02*
D03*
X008037Y019760D02*
D03*
X007847D02*
D03*
Y019208D02*
D03*
X008037D02*
D03*
X007847Y018954D02*
D03*
X008037D02*
D03*
Y018573D02*
D03*
X007847D02*
D03*
X008037Y018319D02*
D03*
X007847D02*
D03*
X012132Y020014D02*
D03*
X011942D02*
D03*
X013792Y019760D02*
D03*
X013982D02*
D03*
X012132Y019633D02*
D03*
X011942D02*
D03*
X013982Y020141D02*
D03*
X013792D02*
D03*
X013972Y020543D02*
D03*
X013782D02*
D03*
X013982Y018319D02*
D03*
X013792D02*
D03*
X013982Y018573D02*
D03*
X013792D02*
D03*
X013982Y018954D02*
D03*
X013792D02*
D03*
X013982Y019208D02*
D03*
X013792D02*
D03*
X016292Y019760D02*
D03*
X016482D02*
D03*
X014442Y020014D02*
D03*
X014632D02*
D03*
X016482Y020141D02*
D03*
X016292D02*
D03*
X014442Y019633D02*
D03*
X014632D02*
D03*
X016282Y020543D02*
D03*
X016472D02*
D03*
X016482Y018319D02*
D03*
X016292D02*
D03*
X016482Y018573D02*
D03*
X016292D02*
D03*
X016482Y018954D02*
D03*
X016292D02*
D03*
X016482Y019208D02*
D03*
X016292D02*
D03*
X005997Y020014D02*
D03*
X006187D02*
D03*
X005997Y019633D02*
D03*
X006187D02*
D03*
D42*
X010034Y019081D02*
D03*
Y018954D02*
D03*
Y018827D02*
D03*
Y018700D02*
D03*
Y018573D02*
D03*
Y018446D02*
D03*
Y018319D02*
D03*
X009056Y019208D02*
D03*
Y019081D02*
D03*
Y018954D02*
D03*
Y018827D02*
D03*
Y018700D02*
D03*
Y018573D02*
D03*
Y018446D02*
D03*
Y018319D02*
D03*
X013459Y019081D02*
D03*
Y018954D02*
D03*
Y018827D02*
D03*
Y018700D02*
D03*
Y018573D02*
D03*
Y018446D02*
D03*
Y018319D02*
D03*
X012481Y019208D02*
D03*
Y019081D02*
D03*
Y018954D02*
D03*
Y018827D02*
D03*
Y018700D02*
D03*
Y018573D02*
D03*
Y018446D02*
D03*
Y018319D02*
D03*
X014981D02*
D03*
Y018446D02*
D03*
Y018573D02*
D03*
Y018700D02*
D03*
Y018827D02*
D03*
Y018954D02*
D03*
Y019081D02*
D03*
Y019208D02*
D03*
X015959Y018319D02*
D03*
Y018446D02*
D03*
Y018573D02*
D03*
Y018700D02*
D03*
Y018827D02*
D03*
Y018954D02*
D03*
Y019081D02*
D03*
X006536Y018319D02*
D03*
Y018446D02*
D03*
Y018573D02*
D03*
Y018700D02*
D03*
Y018827D02*
D03*
Y018954D02*
D03*
Y019081D02*
D03*
Y019208D02*
D03*
X007514Y018319D02*
D03*
Y018446D02*
D03*
Y018573D02*
D03*
Y018700D02*
D03*
Y018827D02*
D03*
Y018954D02*
D03*
Y019081D02*
D03*
D43*
X010034Y019208D02*
D03*
X013459D02*
D03*
X015959D02*
D03*
X007514Y019208D02*
D03*
D48*
X013610Y019285D02*
X013800Y019475D01*
X012065Y019285D02*
X013610D01*
X011831Y019519D02*
X012065Y019285D01*
X012034Y019415D02*
X013659D01*
X011942Y019507D02*
X012034Y019415D01*
X011942Y019507D02*
Y019633D01*
X013659Y019415D02*
X013949Y019706D01*
X013800Y019475D02*
X014150D01*
X013792Y019335D02*
Y019351D01*
Y019208D02*
Y019335D01*
X012850Y021100D02*
X013888D01*
X014200Y020788D01*
X013380Y021684D02*
X013380Y021684D01*
X013275Y021375D02*
X013380Y021480D01*
Y021684D01*
X009101Y021375D02*
X013275D01*
X008517Y020542D02*
X009200Y021225D01*
X013411D02*
X013580Y021395D01*
X009200Y021225D02*
X013411D01*
X008517Y020014D02*
Y020542D01*
X008036Y020141D02*
X008037Y020141D01*
Y020141D02*
Y020311D01*
X008036D02*
X009101Y021375D01*
X005997Y020822D02*
X006629Y021454D01*
X013580Y021395D02*
Y021684D01*
X014325Y019975D02*
Y020850D01*
X013780Y021395D02*
Y021684D01*
Y021395D02*
X014325Y020850D01*
X014442Y020014D02*
Y020908D01*
X013980Y021370D02*
X014442Y020908D01*
X013980Y021370D02*
Y021684D01*
X014110Y019760D02*
X014325Y019975D01*
X013982Y019760D02*
X014110D01*
X009050Y020141D02*
X009750D01*
X008828Y019760D02*
Y019847D01*
X008868Y019887D01*
X008828Y020141D02*
Y020232D01*
X008864Y020268D01*
X010317Y015565D02*
X010320Y015568D01*
X010256Y019936D02*
Y020013D01*
X010258Y020014D01*
X010502Y015373D02*
X010504Y015371D01*
X010527D01*
X010681Y015568D02*
X010684Y015571D01*
X010652Y015729D02*
X010684Y015696D01*
X010684D01*
X010730Y017141D02*
Y017141D01*
X010662Y017391D02*
X010665D01*
X010634Y017420D02*
X010662Y017391D01*
X010647Y017610D02*
X010665Y017592D01*
Y017516D02*
Y017592D01*
X010729Y018574D02*
X010730Y018573D01*
X008517Y019633D02*
Y020014D01*
X009787Y019713D02*
X009867Y019633D01*
X009787Y019713D02*
Y019714D01*
X010208Y019887D02*
X010256Y019936D01*
X010527Y017250D02*
X010542Y017266D01*
X010550Y019656D02*
Y019754D01*
X010450Y020701D02*
X010547Y020798D01*
X010649Y017060D02*
X010730Y017141D01*
X010785Y015371D02*
X010860Y015446D01*
X008517Y019504D02*
Y019633D01*
X008828Y020546D02*
X008982Y020701D01*
X009759Y019741D02*
Y019760D01*
X010319Y015373D02*
X010502D01*
X010317Y015565D02*
X010527D01*
X010339Y015729D02*
X010652D01*
X010339Y015919D02*
X010527D01*
X010339Y017250D02*
X010527D01*
X010339Y017420D02*
X010527D01*
X010634D01*
X010339Y017610D02*
X010527D01*
X010647D01*
X010367Y018319D02*
Y018446D01*
X010368Y018449D02*
X010370Y018451D01*
X010367Y018319D02*
X010368Y018321D01*
X010367Y018954D02*
Y019076D01*
Y019335D02*
Y019351D01*
X010040Y019760D02*
X010367D01*
X010040Y019887D02*
X010208D01*
X010367Y019760D02*
X010369D01*
X010550Y019754D02*
X010557Y019760D01*
X010040Y020141D02*
X010364D01*
X008517Y019504D02*
X008645Y019376D01*
X009759Y019741D02*
X009787Y019714D01*
X010339Y017060D02*
X010527D01*
X010649D01*
X010367Y018573D02*
Y018697D01*
X010370Y018701D01*
X010367Y019208D02*
Y019335D01*
X010557Y019760D02*
Y020141D01*
X010698Y015919D02*
X010795Y015821D01*
X010270Y019376D02*
X010550Y019656D01*
X009867Y019633D02*
X010040D01*
X008868Y019887D02*
X009050D01*
Y019760D02*
X009759D01*
X008696Y020014D02*
X009050D01*
X009352D02*
X010040D01*
X008864Y020268D02*
X009050D01*
X010527Y015371D02*
X010785D01*
X010320Y015568D02*
X010681D01*
X010527Y015919D02*
X010698D01*
X010557Y018319D02*
X010665D01*
X010557Y018574D02*
X010729D01*
X010557Y018954D02*
X010795D01*
X010557Y019208D02*
X010860D01*
X010542Y017266D02*
X010665D01*
X008645Y019376D02*
X010270D01*
X008982Y020701D02*
X010450D01*
X006832Y020014D02*
X007520D01*
X013184Y019760D02*
X013311Y019633D01*
X013465D01*
X015684Y019760D02*
X015811Y019633D01*
X015965D01*
X007239Y019760D02*
X007366Y019633D01*
X007520D01*
X014200Y020124D02*
Y020788D01*
X014091Y020015D02*
X014200Y020124D01*
X014331Y019656D02*
Y019760D01*
X014150Y019475D02*
X014331Y019656D01*
X011831Y019519D02*
Y019760D01*
X013982Y019760D02*
Y020141D01*
X005997Y020014D02*
Y020822D01*
X016292Y019335D02*
Y019351D01*
Y019208D02*
Y019335D01*
Y018954D02*
Y019076D01*
Y018697D02*
X016295Y018701D01*
X016292Y018573D02*
Y018697D01*
Y018319D02*
X016293Y018321D01*
Y018449D02*
X016295Y018451D01*
X016292Y018319D02*
Y018446D01*
X016375Y020701D02*
X016472Y020798D01*
X014907Y020701D02*
X016375D01*
X014753Y020546D02*
X014907Y020701D01*
X016292Y019760D02*
X016294D01*
X016482D02*
Y020141D01*
X016475Y019754D02*
X016482Y019760D01*
X016475Y019656D02*
Y019754D01*
X016195Y019376D02*
X016475Y019656D01*
X014442Y019504D02*
X014570Y019376D01*
X016195D01*
X014442Y019504D02*
Y019633D01*
Y020014D01*
X015277D02*
X015965D01*
X016181Y020013D02*
X016183Y020014D01*
X016181Y019936D02*
Y020013D01*
X016133Y019887D02*
X016181Y019936D01*
X015965Y019887D02*
X016133D01*
X015965Y019760D02*
X016292D01*
X014975D02*
X015684D01*
X014793Y019887D02*
X014975D01*
X014753Y019847D02*
X014793Y019887D01*
X014753Y019760D02*
Y019847D01*
X014621Y020014D02*
X014975D01*
X015965Y020141D02*
X016289D01*
X014975D02*
X015684D01*
X014789Y020268D02*
X014975D01*
X014753Y020232D02*
X014789Y020268D01*
X014753Y020141D02*
Y020232D01*
X016467Y017266D02*
X016590D01*
X016452Y017250D02*
X016467Y017266D01*
X016482Y018574D02*
X016654D01*
X016655Y018573D01*
Y017141D02*
Y017141D01*
X016574Y017060D02*
X016655Y017141D01*
X016452Y017060D02*
X016574D01*
X016264Y017250D02*
X016452D01*
X016264Y017060D02*
X016452D01*
X016559Y017420D02*
X016587Y017391D01*
X016590D01*
X016452Y017420D02*
X016559D01*
X016590Y017516D02*
Y017592D01*
X016572Y017610D02*
X016590Y017592D01*
X016482Y018319D02*
X016590D01*
X016452Y017610D02*
X016572D01*
X016264Y017420D02*
X016452D01*
X016264Y017610D02*
X016452D01*
X016482Y019208D02*
X016785D01*
X016710Y015371D02*
X016785Y015446D01*
X016452Y015371D02*
X016710D01*
X016429D02*
X016452D01*
X016606Y015568D02*
X016609Y015571D01*
X016245Y015568D02*
X016606D01*
X016242Y015565D02*
X016245Y015568D01*
X016242Y015565D02*
X016452D01*
X016244Y015373D02*
X016427D01*
X016429Y015371D01*
X016482Y018954D02*
X016720D01*
X016452Y015919D02*
X016623D01*
X016720Y015821D01*
X016609Y015696D02*
X016609D01*
X016577Y015729D02*
X016609Y015696D01*
X016264Y015729D02*
X016577D01*
X016264Y015919D02*
X016452D01*
X013792Y018954D02*
Y019076D01*
Y018697D02*
X013795Y018701D01*
X013792Y018573D02*
Y018697D01*
Y018319D02*
X013793Y018321D01*
Y018449D02*
X013795Y018451D01*
X013792Y018319D02*
Y018446D01*
X013875Y020701D02*
X013972Y020798D01*
X012407Y020701D02*
X013875D01*
X012253Y020546D02*
X012407Y020701D01*
X013792Y019760D02*
X013794D01*
X011942Y019633D02*
Y020014D01*
X012777D02*
X013465D01*
X013681Y020013D02*
X013683Y020014D01*
X013681Y019936D02*
Y020013D01*
X013633Y019887D02*
X013681Y019936D01*
X013465Y019887D02*
X013633D01*
X013465Y019760D02*
X013792D01*
X012475D02*
X013184D01*
X012293Y019887D02*
X012475D01*
X012253Y019847D02*
X012293Y019887D01*
X012253Y019760D02*
Y019847D01*
X012121Y020014D02*
X012475D01*
X013465Y020141D02*
X013789D01*
X012475D02*
X013184D01*
X012289Y020268D02*
X012475D01*
X012253Y020232D02*
X012289Y020268D01*
X012253Y020141D02*
Y020232D01*
X013967Y017266D02*
X014090D01*
X013952Y017250D02*
X013967Y017266D01*
X013982Y018574D02*
X014154D01*
X014155Y018573D01*
Y017141D02*
Y017141D01*
X014074Y017060D02*
X014155Y017141D01*
X013952Y017060D02*
X014074D01*
X013764Y017250D02*
X013952D01*
X013764Y017060D02*
X013952D01*
X014059Y017420D02*
X014087Y017391D01*
X014090D01*
X013952Y017420D02*
X014059D01*
X014090Y017516D02*
Y017592D01*
X014072Y017610D02*
X014090Y017592D01*
X013982Y018319D02*
X014090D01*
X013952Y017610D02*
X014072D01*
X013764Y017420D02*
X013952D01*
X013764Y017610D02*
X013952D01*
X013982Y019208D02*
X014285D01*
X014210Y015371D02*
X014285Y015446D01*
X013952Y015371D02*
X014210D01*
X013929D02*
X013952D01*
X014106Y015568D02*
X014109Y015571D01*
X013745Y015568D02*
X014106D01*
X013742Y015565D02*
X013745Y015568D01*
X013742Y015565D02*
X013952D01*
X013744Y015373D02*
X013927D01*
X013929Y015371D01*
X013982Y018954D02*
X014220D01*
X013952Y015919D02*
X014123D01*
X014220Y015821D01*
X014109Y015696D02*
X014109D01*
X014077Y015729D02*
X014109Y015696D01*
X013764Y015729D02*
X014077D01*
X013764Y015919D02*
X013952D01*
X006308Y020546D02*
X006462Y020700D01*
X007930D01*
X008027Y020797D01*
X007750Y019375D02*
X008030Y019655D01*
X006125Y019375D02*
X007750D01*
X005997Y019503D02*
X006125Y019375D01*
X008030Y019655D02*
Y019754D01*
X008037Y019760D01*
Y020141D01*
X005997Y019503D02*
Y019633D01*
X008178Y015918D02*
X008275Y015821D01*
X008164Y015696D02*
X008164D01*
X005997Y019633D02*
Y020014D01*
X007847Y019335D02*
Y019350D01*
Y019208D02*
Y019335D01*
Y018954D02*
Y019075D01*
Y018319D02*
Y018445D01*
Y018319D02*
X007848Y018321D01*
Y018448D02*
X007850Y018450D01*
X007847Y018697D02*
X007850Y018700D01*
X007847Y018573D02*
Y018697D01*
X008037Y019208D02*
X008340D01*
X007847Y019760D02*
X007849D01*
X006344Y020268D02*
X006530D01*
X006308Y020232D02*
X006344Y020268D01*
X006308Y020141D02*
Y020232D01*
X006530Y020141D02*
X007239D01*
X007520D02*
X007844D01*
X006176Y020014D02*
X006530D01*
X006348Y019887D02*
X006530D01*
X006308Y019759D02*
Y019847D01*
X006348Y019887D01*
X006530Y019760D02*
X007239D01*
X007520D02*
X007847D01*
X007736Y020013D02*
X007738Y020014D01*
X007736Y019936D02*
Y020013D01*
X007688Y019887D02*
X007736Y019936D01*
X007520Y019887D02*
X007688D01*
X008037Y018574D02*
X008209D01*
X008210Y018573D01*
Y017140D02*
Y017140D01*
X008129Y017060D02*
X008210Y017140D01*
X008007Y017060D02*
X008129D01*
X008022Y017265D02*
X008145D01*
X008007Y017249D02*
X008022Y017265D01*
X007819Y017060D02*
X008007D01*
X007819Y017249D02*
X008007D01*
X008145Y017515D02*
Y017591D01*
X008127Y017609D02*
X008145Y017591D01*
X008037Y018319D02*
X008145D01*
X008007Y017609D02*
X008127D01*
X008114Y017419D02*
X008142Y017390D01*
X008145D01*
X008007Y017419D02*
X008114D01*
X007819Y017609D02*
X008007D01*
X007819Y017419D02*
X008007D01*
X008265Y015371D02*
X008340Y015446D01*
X008007Y015371D02*
X008265D01*
X007984D02*
X008007D01*
X007799Y015373D02*
X007982D01*
X007984Y015371D01*
X008161Y015568D02*
X008164Y015571D01*
X007800Y015568D02*
X008161D01*
X007797Y015565D02*
X007800Y015568D01*
X007797Y015565D02*
X008007D01*
X008037Y018954D02*
X008275D01*
X008007Y015918D02*
X008178D01*
X007819D02*
X008007D01*
X008131Y015728D02*
X008164Y015696D01*
X007819Y015728D02*
X008131D01*
D49*
X009819Y017770D02*
X009822Y017768D01*
X009819Y015323D02*
Y017768D01*
X015356Y013202D02*
Y013216D01*
X015240Y013085D02*
X015356Y013202D01*
X015240Y012972D02*
Y013085D01*
X015229Y012962D02*
X015240Y012972D01*
X015102Y013202D02*
Y013216D01*
X014986Y013085D02*
X015102Y013202D01*
X014986Y012972D02*
Y013085D01*
X014975Y012962D02*
X014986Y012972D01*
X013578Y013216D02*
X013589Y013206D01*
Y013093D02*
Y013206D01*
Y013093D02*
X013705Y012976D01*
Y012962D02*
Y012976D01*
X013324Y013202D02*
Y013216D01*
Y013202D02*
X013441Y013085D01*
Y012972D02*
Y013085D01*
Y012972D02*
X013451Y012962D01*
X008943D02*
Y013089D01*
X009070Y013216D01*
X009197Y013089D02*
X009324Y013216D01*
X009197Y012962D02*
Y013089D01*
X007546Y013202D02*
Y013216D01*
Y013202D02*
X007663Y013085D01*
Y012972D02*
Y013085D01*
Y012972D02*
X007673Y012962D01*
X007292Y013202D02*
Y013216D01*
Y013202D02*
X007409Y013085D01*
Y012972D02*
Y013085D01*
Y012972D02*
X007419Y012962D01*
X015744Y017770D02*
X015747Y017768D01*
X015744Y015323D02*
Y017768D01*
X013244Y017770D02*
X013247Y017768D01*
X013244Y015323D02*
Y017768D01*
X007299Y017770D02*
X007302Y017767D01*
X007299Y015322D02*
Y017767D01*
D50*
X010357Y020375D02*
X010357Y020375D01*
X010547Y020543D02*
Y020798D01*
X010357Y020375D02*
Y020543D01*
X008774Y018319D02*
X009074D01*
X008774Y018446D02*
X009074D01*
X008774Y018573D02*
X009074D01*
X008774Y018827D02*
X009074D01*
X008774Y018954D02*
X009074D01*
X008774Y019208D02*
X009074D01*
X008774Y018700D02*
X009074D01*
X008774Y019081D02*
X009074D01*
X016282Y020375D02*
Y020543D01*
X016282Y020375D02*
X016282Y020375D01*
X016472Y020543D02*
Y020798D01*
X014699Y019208D02*
X014999D01*
X014699Y019081D02*
X014999D01*
X014699Y018954D02*
X014999D01*
X014699Y018827D02*
X014999D01*
X014699Y018700D02*
X014999D01*
X014699Y018573D02*
X014999D01*
X014699Y018446D02*
X014999D01*
X014699Y018319D02*
X014999D01*
X013782Y020375D02*
Y020543D01*
X013782Y020375D02*
X013782Y020375D01*
X013972Y020543D02*
Y020798D01*
X012199Y019208D02*
X012499D01*
X012199Y019081D02*
X012499D01*
X012199Y018954D02*
X012499D01*
X012199Y018827D02*
X012499D01*
X012199Y018700D02*
X012499D01*
X012199Y018573D02*
X012499D01*
X012199Y018446D02*
X012499D01*
X012199Y018319D02*
X012499D01*
X013700Y013177D02*
Y013333D01*
X013390Y013340D02*
X014470D01*
X013230Y013500D02*
X013390Y013340D01*
X014470D02*
X014594Y013216D01*
X009237Y013337D02*
X009400Y013500D01*
X013230D01*
X008684Y013337D02*
X009237D01*
X013700Y013177D02*
X013915Y012962D01*
X013959D01*
X008562Y013216D02*
X008684Y013337D01*
X008435Y013089D02*
X008562Y013216D01*
X008054Y013089D02*
X008435D01*
X007927Y012962D02*
X008054Y013089D01*
X013965Y013603D02*
X014086Y013724D01*
X014335Y013603D02*
X014467Y013470D01*
X008074Y013704D02*
X008201D01*
X013965Y013603D02*
X014335D01*
X008054Y013724D02*
X008074Y013704D01*
X008435Y013470D02*
X008568Y013603D01*
X013965D01*
X008201Y013704D02*
X008435Y013470D01*
X007837Y020374D02*
Y020542D01*
X007837Y020374D02*
X007837Y020374D01*
X008027Y020542D02*
Y020797D01*
X006254Y019208D02*
X006554D01*
X006254Y019081D02*
X006554D01*
X006254Y018954D02*
X006554D01*
X006254Y018827D02*
X006554D01*
X006254Y018700D02*
X006554D01*
X006254Y018573D02*
X006554D01*
X006254Y018446D02*
X006554D01*
X006254Y018319D02*
X006554D01*
D52*
X009371Y014875D02*
D03*
X009181Y016399D02*
D03*
X009371Y016569D02*
D03*
X009181Y018093D02*
D03*
X012796Y016569D02*
D03*
X012606Y018093D02*
D03*
X012796Y014875D02*
D03*
X012606Y016399D02*
D03*
X015106D02*
D03*
X015296Y014875D02*
D03*
X015106Y018093D02*
D03*
X015296Y016569D02*
D03*
X006661Y016398D02*
D03*
X006851Y014874D02*
D03*
X006661Y018093D02*
D03*
X006851Y016569D02*
D03*
D53*
X006893Y013267D02*
D03*
X009725D02*
D03*
X012925D02*
D03*
X015757D02*
D03*
D54*
X008435Y013470D02*
D03*
X007673D02*
D03*
X007927D02*
D03*
X008181D02*
D03*
X007419D02*
D03*
X008689D02*
D03*
X008943D02*
D03*
X009197D02*
D03*
X008054Y013216D02*
D03*
X009324D02*
D03*
X007292D02*
D03*
X007546D02*
D03*
X007800D02*
D03*
X008308D02*
D03*
X008562D02*
D03*
X008816D02*
D03*
X009070D02*
D03*
X007419Y012962D02*
D03*
X007673D02*
D03*
X007927D02*
D03*
X008181D02*
D03*
X008435D02*
D03*
X008689D02*
D03*
X008943D02*
D03*
X009197D02*
D03*
X008562Y013724D02*
D03*
X007800D02*
D03*
X008054D02*
D03*
X007546D02*
D03*
X008816D02*
D03*
X009070D02*
D03*
X014467Y013470D02*
D03*
X013705D02*
D03*
X013959D02*
D03*
X014213D02*
D03*
X013451D02*
D03*
X014721D02*
D03*
X014975D02*
D03*
X015229D02*
D03*
X014086Y013216D02*
D03*
X015356D02*
D03*
X013324D02*
D03*
X013578D02*
D03*
X013832D02*
D03*
X014340D02*
D03*
X014594D02*
D03*
X014848D02*
D03*
X015102D02*
D03*
X013451Y012962D02*
D03*
X013705D02*
D03*
X013959D02*
D03*
X014213D02*
D03*
X014467D02*
D03*
X014721D02*
D03*
X014975D02*
D03*
X015229D02*
D03*
X014594Y013724D02*
D03*
X013832D02*
D03*
X014086D02*
D03*
X013578D02*
D03*
X014848D02*
D03*
X015102D02*
D03*
D55*
X014980Y021884D02*
D03*
X014780D02*
D03*
X014580D02*
D03*
X014180Y021684D02*
D03*
X014380Y021884D02*
D03*
Y021684D02*
D03*
X014180Y021884D02*
D03*
X013180D02*
D03*
X013380Y021684D02*
D03*
Y021884D02*
D03*
X013580D02*
D03*
X013780D02*
D03*
X013980Y021684D02*
D03*
Y021884D02*
D03*
X013580Y021684D02*
D03*
X013780D02*
D03*
X014980D02*
D03*
X014780D02*
D03*
X014580D02*
D03*
X012780Y021884D02*
D03*
Y021684D02*
D03*
X012580Y021884D02*
D03*
Y021684D02*
D03*
X012380Y021884D02*
D03*
Y021684D02*
D03*
X012180Y021884D02*
D03*
Y021684D02*
D03*
X011980Y021884D02*
D03*
X012980D02*
D03*
Y021684D02*
D03*
D56*
X013180D02*
D03*
X011980D02*
D03*
D57*
X011326Y016967D02*
D03*
D58*
X016926Y021567D02*
D03*
Y014367D02*
D03*
X005726D02*
D03*
Y021567D02*
D03*
D59*
X017076Y016467D02*
D03*
Y019467D02*
D03*
X005576D02*
D03*
X005576Y016467D02*
D03*
D60*
X013450Y019350D02*
D03*
X013792Y019335D02*
D03*
X011831Y019760D02*
D03*
X012850Y021100D02*
D03*
X010357Y020796D02*
D03*
X008406Y019760D02*
D03*
X008828Y019760D02*
D03*
X010258Y019633D02*
D03*
Y020014D02*
D03*
X010684Y015571D02*
D03*
Y015696D02*
D03*
X010665Y017391D02*
D03*
Y017516D02*
D03*
X010666Y019633D02*
D03*
Y020015D02*
D03*
X010860Y019208D02*
D03*
X008406Y020141D02*
D03*
Y020924D02*
D03*
X008828Y020141D02*
D03*
Y020546D02*
D03*
X010665Y017266D02*
D03*
Y018319D02*
D03*
X010860Y015446D02*
D03*
X008774Y018446D02*
D03*
Y018573D02*
D03*
Y018827D02*
D03*
Y018954D02*
D03*
Y019208D02*
D03*
X010367Y018446D02*
D03*
X010730Y017141D02*
D03*
Y018573D02*
D03*
X010795Y018954D02*
D03*
X008774Y018319D02*
D03*
Y018700D02*
D03*
Y019081D02*
D03*
X010367Y018701D02*
D03*
Y019076D02*
D03*
Y019335D02*
D03*
X010795Y015821D02*
D03*
X007837Y020796D02*
D03*
X014632Y019887D02*
D03*
Y019475D02*
D03*
X014442Y021057D02*
D03*
X016292Y019335D02*
D03*
X016591Y019633D02*
D03*
X016292Y019076D02*
D03*
Y018701D02*
D03*
Y018446D02*
D03*
X014753Y020546D02*
D03*
X016282Y020798D02*
D03*
X014699Y019208D02*
D03*
Y019081D02*
D03*
Y018954D02*
D03*
Y018827D02*
D03*
Y018700D02*
D03*
Y018573D02*
D03*
Y018446D02*
D03*
Y018319D02*
D03*
X016591Y020015D02*
D03*
X014331Y019760D02*
D03*
X016183Y019633D02*
D03*
Y020014D02*
D03*
X014753Y019760D02*
D03*
Y020141D02*
D03*
X016590Y017266D02*
D03*
X016655Y018573D02*
D03*
Y017141D02*
D03*
X016590Y017391D02*
D03*
Y018319D02*
D03*
Y017516D02*
D03*
X016785Y019208D02*
D03*
Y015446D02*
D03*
X016609Y015571D02*
D03*
X016720Y018954D02*
D03*
Y015821D02*
D03*
X016609Y015696D02*
D03*
X014091Y019633D02*
D03*
X013792Y019076D02*
D03*
Y018701D02*
D03*
Y018446D02*
D03*
X011831Y020924D02*
D03*
X012253Y020546D02*
D03*
X013782Y020798D02*
D03*
X012199Y019208D02*
D03*
Y019081D02*
D03*
Y018954D02*
D03*
Y018827D02*
D03*
Y018700D02*
D03*
Y018573D02*
D03*
Y018446D02*
D03*
Y018319D02*
D03*
X014091Y020015D02*
D03*
X011831Y020141D02*
D03*
X013683Y019633D02*
D03*
Y020014D02*
D03*
X012253Y019760D02*
D03*
Y020141D02*
D03*
X014090Y017266D02*
D03*
X014155Y018573D02*
D03*
Y017141D02*
D03*
X014090Y017391D02*
D03*
Y018319D02*
D03*
Y017516D02*
D03*
X014285Y019208D02*
D03*
Y015446D02*
D03*
X014109Y015571D02*
D03*
X014220Y018954D02*
D03*
Y015821D02*
D03*
X014109Y015696D02*
D03*
X006308Y020546D02*
D03*
X008275Y015821D02*
D03*
X008164Y015696D02*
D03*
X005886Y020923D02*
D03*
X007847Y018445D02*
D03*
Y019075D02*
D03*
Y018700D02*
D03*
Y019335D02*
D03*
X008146Y020015D02*
D03*
X005886Y019760D02*
D03*
Y020141D02*
D03*
X008340Y019208D02*
D03*
Y015446D02*
D03*
X008146Y019633D02*
D03*
X006254Y019208D02*
D03*
Y019081D02*
D03*
Y018954D02*
D03*
Y018827D02*
D03*
Y018700D02*
D03*
Y018573D02*
D03*
Y018446D02*
D03*
Y018319D02*
D03*
X006308Y020141D02*
D03*
Y019759D02*
D03*
X007738Y020014D02*
D03*
Y019633D02*
D03*
X008210Y018573D02*
D03*
Y017140D02*
D03*
X008145Y017265D02*
D03*
Y018319D02*
D03*
Y017515D02*
D03*
Y017390D02*
D03*
X008164Y015571D02*
D03*
X008275Y018954D02*
D03*
D61*
X009750Y020150D02*
D03*
X009352Y019633D02*
D03*
Y020014D02*
D03*
X009759Y019760D02*
D03*
X015277Y019633D02*
D03*
Y020014D02*
D03*
X015684Y019760D02*
D03*
Y020141D02*
D03*
X012777Y019633D02*
D03*
Y020014D02*
D03*
X013184Y019760D02*
D03*
Y020141D02*
D03*
X006832Y019633D02*
D03*
X007239Y020141D02*
D03*
Y019760D02*
D03*
X006832Y020014D02*
D03*
D62*
X010034Y018176D02*
D03*
X010547Y017761D02*
D03*
X010520Y015071D02*
D03*
Y016071D02*
D03*
X010547Y016898D02*
D03*
Y020798D02*
D03*
X010357Y020375D02*
D03*
X009819Y015321D02*
D03*
Y017770D02*
D03*
X016472Y017761D02*
D03*
Y016898D02*
D03*
X016445Y016071D02*
D03*
X015744Y017770D02*
D03*
Y015321D02*
D03*
X016445Y015071D02*
D03*
X016282Y020375D02*
D03*
X016472Y020798D02*
D03*
X015959Y018176D02*
D03*
X013972Y017761D02*
D03*
Y016898D02*
D03*
X013945Y016071D02*
D03*
X013244Y017770D02*
D03*
Y015321D02*
D03*
X013945Y015071D02*
D03*
X013782Y020375D02*
D03*
X013972Y020798D02*
D03*
X013459Y018176D02*
D03*
X008000Y015071D02*
D03*
Y016071D02*
D03*
X008027Y020797D02*
D03*
X007514Y018176D02*
D03*
X007837Y020374D02*
D03*
X008027Y017760D02*
D03*
Y016897D02*
D03*
X007299Y017770D02*
D03*
Y015321D02*
D03*
D63*
X010034Y018189D02*
Y018319D01*
Y018446D02*
Y018573D01*
Y018319D02*
Y018446D01*
Y018573D02*
Y018700D01*
Y018954D02*
Y019081D01*
Y019208D01*
Y018700D02*
Y018827D01*
Y018954D01*
X015959Y019081D02*
Y019208D01*
Y018954D02*
Y019081D01*
Y018827D02*
Y018954D01*
Y018700D02*
Y018827D01*
Y018573D02*
Y018700D01*
Y018319D02*
Y018446D01*
Y018573D01*
Y018189D02*
Y018319D01*
X013459Y019081D02*
Y019208D01*
Y018954D02*
Y019081D01*
Y018827D02*
Y018954D01*
Y018700D02*
Y018827D01*
Y018573D02*
Y018700D01*
Y018319D02*
Y018446D01*
Y018573D01*
Y018189D02*
Y018319D01*
X007514Y018189D02*
Y018319D01*
Y019081D02*
Y019208D01*
Y018954D02*
Y019081D01*
Y018827D02*
Y018954D01*
Y018700D02*
Y018827D01*
Y018573D02*
Y018700D01*
Y018446D02*
Y018573D01*
Y018319D02*
Y018446D01*
D64*
X010339Y015919D02*
D03*
Y015729D02*
D03*
X010527Y015919D02*
D03*
Y015729D02*
D03*
X010339Y015371D02*
D03*
Y015561D02*
D03*
X010527Y015371D02*
D03*
Y015561D02*
D03*
X010339Y017610D02*
D03*
Y017420D02*
D03*
X010527Y017610D02*
D03*
Y017420D02*
D03*
X010339Y017060D02*
D03*
Y017250D02*
D03*
X010527Y017060D02*
D03*
Y017250D02*
D03*
X007819Y017609D02*
D03*
Y017419D02*
D03*
Y017060D02*
D03*
Y017249D02*
D03*
Y015918D02*
D03*
Y015728D02*
D03*
Y015371D02*
D03*
Y015561D02*
D03*
X013764Y015729D02*
D03*
Y015919D02*
D03*
Y017420D02*
D03*
Y017610D02*
D03*
Y017250D02*
D03*
Y017060D02*
D03*
X013952D02*
D03*
Y017250D02*
D03*
Y015371D02*
D03*
Y015561D02*
D03*
X013764Y015371D02*
D03*
Y015561D02*
D03*
X013952Y015919D02*
D03*
Y015729D02*
D03*
X008007Y017249D02*
D03*
Y017060D02*
D03*
Y015728D02*
D03*
Y015918D02*
D03*
Y015561D02*
D03*
Y015371D02*
D03*
X013952Y017420D02*
D03*
Y017610D02*
D03*
X016264Y015919D02*
D03*
Y015729D02*
D03*
X016452Y015919D02*
D03*
Y015729D02*
D03*
X016264Y015371D02*
D03*
Y015561D02*
D03*
X016452Y015371D02*
D03*
Y015561D02*
D03*
X016264Y017610D02*
D03*
Y017420D02*
D03*
X016452D02*
D03*
Y017610D02*
D03*
X016264Y017060D02*
D03*
Y017250D02*
D03*
X016452Y017060D02*
D03*
Y017250D02*
D03*
X008007Y017609D02*
D03*
Y017419D02*
D03*
M02*
