G04*
G04 #@! TF.GenerationSoftware,Altium Limited,Altium Designer,20.1.10 (176)*
G04*
G04 Layer_Color=8388736*
%FSAX42Y42*%
%MOMM*%
G71*
G04*
G04 #@! TF.SameCoordinates,05C6C66F-C92C-4908-9B6B-627AEAEC3FAA*
G04*
G04*
G04 #@! TF.FilePolarity,Negative*
G04*
G01*
G75*
%ADD14R,8.00X8.00*%
%ADD15R,2.74X1.02*%
%ADD16R,1.00X1.50*%
%ADD17O,2.70X0.90*%
%ADD18O,4.00X0.90*%
%ADD19R,4.00X0.90*%
%ADD20O,2.49X0.90*%
%ADD21R,2.49X0.90*%
%ADD22O,1.70X0.58*%
%ADD23R,1.70X0.58*%
%ADD24R,2.74X0.76*%
%ADD25O,2.74X0.76*%
%ADD26C,1.70*%
%ADD27C,3.45*%
%ADD28C,1.73*%
%ADD29C,1.57*%
%ADD30R,1.57X1.57*%
%ADD31C,6.71*%
%ADD32C,6.55*%
%ADD33C,4.01*%
%ADD34C,0.80*%
%ADD35C,1.20*%
%ADD36C,1.50*%
G36*
X005809Y022685D02*
X005811Y022684D01*
X005812Y022684D01*
X005813Y022683D01*
X005814Y022683D01*
X005815Y022682D01*
X005816Y022681D01*
X005817Y022680D01*
X005818Y022678D01*
X005818Y022677D01*
X005818Y022676D01*
X005818Y022675D01*
Y022024D01*
X006138D01*
X006140Y022024D01*
X006141Y022024D01*
X006142Y022024D01*
X006143Y022023D01*
X006145Y022022D01*
X006146Y022021D01*
X006146Y022020D01*
X006147Y022019D01*
X006148Y022018D01*
X006148Y022017D01*
X006148Y022016D01*
X006148Y022014D01*
Y021125D01*
X006148Y021124D01*
X006148Y021123D01*
X006148Y021121D01*
X006147Y021120D01*
X006146Y021119D01*
X006146Y021118D01*
X006145Y021117D01*
X006143Y021116D01*
X006142Y021116D01*
X006141Y021115D01*
X006140Y021115D01*
X006138Y021115D01*
X005818D01*
Y014811D01*
X006138D01*
X006140Y014811D01*
X006141Y014810D01*
X006142Y014810D01*
X006143Y014809D01*
X006145Y014809D01*
X006146Y014808D01*
X006146Y014807D01*
X006147Y014806D01*
X006148Y014804D01*
X006148Y014803D01*
X006148Y014802D01*
X006148Y014801D01*
Y013937D01*
X006148Y013936D01*
X006148Y013934D01*
X006148Y013933D01*
X006147Y013932D01*
X006146Y013931D01*
X006146Y013930D01*
X006145Y013929D01*
X006143Y013928D01*
X006142Y013928D01*
X006141Y013927D01*
X006140Y013927D01*
X006138Y013927D01*
X005818D01*
Y013073D01*
X005818Y013072D01*
X005818Y013071D01*
X005818Y013070D01*
X005817Y013068D01*
X005816Y013067D01*
X005815Y013066D01*
X005814Y013065D01*
X005813Y013065D01*
X005812Y013064D01*
X005811Y013064D01*
X005809Y013063D01*
X005808Y013063D01*
X005326D01*
X005324Y013063D01*
X005323Y013064D01*
X005322Y013064D01*
X005320Y013065D01*
X005319Y013065D01*
X005318Y013066D01*
X005317Y013067D01*
X005317Y013068D01*
X005316Y013070D01*
X005316Y013071D01*
X005315Y013072D01*
X005315Y013073D01*
Y022675D01*
X005315Y022676D01*
X005316Y022677D01*
X005316Y022678D01*
X005317Y022680D01*
X005317Y022681D01*
X005318Y022682D01*
X005319Y022683D01*
X005320Y022683D01*
X005322Y022684D01*
X005323Y022684D01*
X005324Y022685D01*
X005326Y022685D01*
X005808D01*
X005809Y022685D01*
D02*
G37*
G36*
X017327Y022177D02*
X017328Y022177D01*
X017329Y022176D01*
X017331Y022176D01*
X017332Y022175D01*
X017333Y022174D01*
X017334Y022173D01*
X017334Y022172D01*
X017335Y022171D01*
X017335Y022170D01*
X017336Y022168D01*
X017336Y022167D01*
Y013073D01*
X017336Y013072D01*
X017335Y013071D01*
X017335Y013070D01*
X017334Y013068D01*
X017334Y013067D01*
X017333Y013066D01*
X017332Y013065D01*
X017331Y013065D01*
X017329Y013064D01*
X017328Y013064D01*
X017327Y013063D01*
X017326Y013063D01*
X016843D01*
X016842Y013063D01*
X016840Y013064D01*
X016839Y013064D01*
X016838Y013065D01*
X016837Y013065D01*
X016836Y013066D01*
X016835Y013067D01*
X016834Y013068D01*
X016834Y013070D01*
X016833Y013071D01*
X016833Y013072D01*
X016833Y013073D01*
Y013927D01*
X016513D01*
X016511Y013927D01*
X016510Y013927D01*
X016509Y013928D01*
X016508Y013928D01*
X016507Y013929D01*
X016506Y013930D01*
X016505Y013931D01*
X016504Y013932D01*
X016503Y013933D01*
X016503Y013934D01*
X016503Y013936D01*
X016503Y013937D01*
Y014801D01*
X016503Y014802D01*
X016503Y014803D01*
X016503Y014804D01*
X016504Y014806D01*
X016505Y014807D01*
X016506Y014808D01*
X016507Y014809D01*
X016508Y014809D01*
X016509Y014810D01*
X016510Y014810D01*
X016511Y014811D01*
X016513Y014811D01*
X016833D01*
Y021115D01*
X016513D01*
X016511Y021115D01*
X016510Y021115D01*
X016509Y021116D01*
X016508Y021116D01*
X016507Y021117D01*
X016506Y021118D01*
X016505Y021119D01*
X016504Y021120D01*
X016503Y021121D01*
X016503Y021123D01*
X016503Y021124D01*
X016503Y021125D01*
Y022014D01*
X016503Y022016D01*
X016503Y022017D01*
X016503Y022018D01*
X016504Y022019D01*
X016505Y022020D01*
X016506Y022021D01*
X016507Y022022D01*
X016508Y022023D01*
X016509Y022024D01*
X016510Y022024D01*
X016511Y022024D01*
X016513Y022024D01*
X016833D01*
Y022167D01*
X016833Y022168D01*
X016833Y022170D01*
X016834Y022171D01*
X016834Y022172D01*
X016835Y022173D01*
X016836Y022174D01*
X016837Y022175D01*
X016838Y022176D01*
X016839Y022176D01*
X016840Y022177D01*
X016842Y022177D01*
X016843Y022177D01*
X017326D01*
X017327Y022177D01*
D02*
G37*
D14*
X011326Y016966D02*
D03*
D15*
X009050Y020014D02*
D03*
Y019506D02*
D03*
Y019887D02*
D03*
Y019633D02*
D03*
Y019760D02*
D03*
X010040Y019506D02*
D03*
Y019633D02*
D03*
Y019760D02*
D03*
Y019887D02*
D03*
Y020014D02*
D03*
X009050Y020268D02*
D03*
Y020141D02*
D03*
X010040D02*
D03*
Y020268D02*
D03*
X013465D02*
D03*
Y020141D02*
D03*
X012475D02*
D03*
Y020268D02*
D03*
X013465Y020014D02*
D03*
Y019887D02*
D03*
Y019760D02*
D03*
Y019633D02*
D03*
Y019506D02*
D03*
X012475Y019760D02*
D03*
Y019633D02*
D03*
Y019887D02*
D03*
Y019506D02*
D03*
Y020014D02*
D03*
X015965Y020268D02*
D03*
Y020141D02*
D03*
X014975D02*
D03*
Y020268D02*
D03*
X015965Y020014D02*
D03*
Y019887D02*
D03*
Y019760D02*
D03*
Y019633D02*
D03*
Y019506D02*
D03*
X014975Y019760D02*
D03*
Y019633D02*
D03*
Y019887D02*
D03*
Y019506D02*
D03*
Y020014D02*
D03*
X006530Y020014D02*
D03*
Y019506D02*
D03*
Y019887D02*
D03*
Y019633D02*
D03*
Y019760D02*
D03*
X007520Y019506D02*
D03*
Y019633D02*
D03*
Y019760D02*
D03*
Y019887D02*
D03*
Y020014D02*
D03*
X006530Y020268D02*
D03*
Y020141D02*
D03*
X007520D02*
D03*
Y020268D02*
D03*
D16*
X008517Y020141D02*
D03*
X008707D02*
D03*
X008517Y019760D02*
D03*
X008707D02*
D03*
X010557Y020014D02*
D03*
X010367D02*
D03*
X010357Y020543D02*
D03*
X010547D02*
D03*
X008707Y020924D02*
D03*
X008517D02*
D03*
X010367Y018319D02*
D03*
X010557D02*
D03*
X010367Y018573D02*
D03*
X010557D02*
D03*
X010367Y018954D02*
D03*
X010557D02*
D03*
X010367Y019633D02*
D03*
X010557D02*
D03*
X010367Y019208D02*
D03*
X010557D02*
D03*
X013982Y020014D02*
D03*
X013792D02*
D03*
X011942Y019760D02*
D03*
X012132D02*
D03*
X011942Y020141D02*
D03*
X012132D02*
D03*
X013972Y020543D02*
D03*
X013782D02*
D03*
X011942Y020924D02*
D03*
X012132D02*
D03*
X013792Y018319D02*
D03*
X013982D02*
D03*
X013792Y018573D02*
D03*
X013982D02*
D03*
X013792Y018954D02*
D03*
X013982D02*
D03*
Y019633D02*
D03*
X013792D02*
D03*
Y019208D02*
D03*
X013982D02*
D03*
X016482Y020014D02*
D03*
X016292D02*
D03*
X014632Y019760D02*
D03*
X014442D02*
D03*
X014632Y020141D02*
D03*
X014442D02*
D03*
X016472Y020543D02*
D03*
X016282D02*
D03*
X014442Y020924D02*
D03*
X014632D02*
D03*
X016292Y018319D02*
D03*
X016482D02*
D03*
X016292Y018573D02*
D03*
X016482D02*
D03*
X016292Y018954D02*
D03*
X016482D02*
D03*
Y019633D02*
D03*
X016292D02*
D03*
Y019208D02*
D03*
X016482D02*
D03*
X005997Y020141D02*
D03*
X006187D02*
D03*
X005997Y019760D02*
D03*
X006187D02*
D03*
X008037Y020014D02*
D03*
X007847D02*
D03*
X007837Y020542D02*
D03*
X008027D02*
D03*
X006187Y020923D02*
D03*
X005997D02*
D03*
X008037Y018319D02*
D03*
X007847D02*
D03*
X008037Y018573D02*
D03*
X007847D02*
D03*
X008037Y018954D02*
D03*
X007847D02*
D03*
Y019633D02*
D03*
X008037D02*
D03*
Y019208D02*
D03*
X007847D02*
D03*
D17*
X010262Y016071D02*
D03*
Y015821D02*
D03*
Y015571D02*
D03*
Y015321D02*
D03*
Y015071D02*
D03*
Y017766D02*
D03*
Y017516D02*
D03*
Y017266D02*
D03*
Y017016D02*
D03*
Y016766D02*
D03*
X013687Y017766D02*
D03*
Y017516D02*
D03*
Y017266D02*
D03*
Y017016D02*
D03*
Y016766D02*
D03*
Y016071D02*
D03*
Y015821D02*
D03*
Y015571D02*
D03*
Y015321D02*
D03*
Y015071D02*
D03*
X016187D02*
D03*
Y015321D02*
D03*
Y015571D02*
D03*
Y015821D02*
D03*
Y016071D02*
D03*
Y016766D02*
D03*
Y017016D02*
D03*
Y017266D02*
D03*
Y017516D02*
D03*
Y017766D02*
D03*
X007742Y015071D02*
D03*
Y015321D02*
D03*
Y015571D02*
D03*
Y015821D02*
D03*
Y016071D02*
D03*
Y016765D02*
D03*
Y017015D02*
D03*
Y017265D02*
D03*
Y017515D02*
D03*
Y017765D02*
D03*
D18*
X010197Y015946D02*
D03*
Y015696D02*
D03*
Y015446D02*
D03*
Y015196D02*
D03*
Y017641D02*
D03*
Y017391D02*
D03*
Y017141D02*
D03*
Y016891D02*
D03*
X013622Y017641D02*
D03*
Y017391D02*
D03*
Y017141D02*
D03*
Y016891D02*
D03*
Y015946D02*
D03*
Y015696D02*
D03*
Y015446D02*
D03*
Y015196D02*
D03*
X016122D02*
D03*
Y015446D02*
D03*
Y015696D02*
D03*
Y015946D02*
D03*
Y016891D02*
D03*
Y017141D02*
D03*
Y017391D02*
D03*
Y017641D02*
D03*
X007677Y015196D02*
D03*
Y015446D02*
D03*
Y015696D02*
D03*
Y015946D02*
D03*
Y016890D02*
D03*
Y017140D02*
D03*
Y017390D02*
D03*
Y017640D02*
D03*
D19*
X010197Y016196D02*
D03*
Y017891D02*
D03*
X013622D02*
D03*
Y016196D02*
D03*
X016122D02*
D03*
Y017891D02*
D03*
X007677Y016196D02*
D03*
Y017890D02*
D03*
D20*
X010034Y018319D02*
D03*
Y018446D02*
D03*
Y018573D02*
D03*
Y018700D02*
D03*
Y018827D02*
D03*
Y018954D02*
D03*
Y019081D02*
D03*
Y019208D02*
D03*
X009056Y018319D02*
D03*
Y018446D02*
D03*
Y018573D02*
D03*
Y018700D02*
D03*
Y018827D02*
D03*
Y018954D02*
D03*
Y019081D02*
D03*
X013459Y018319D02*
D03*
Y018446D02*
D03*
Y018573D02*
D03*
Y018700D02*
D03*
Y018827D02*
D03*
Y018954D02*
D03*
Y019081D02*
D03*
Y019208D02*
D03*
X012481Y018319D02*
D03*
Y018446D02*
D03*
Y018573D02*
D03*
Y018700D02*
D03*
Y018827D02*
D03*
Y018954D02*
D03*
Y019081D02*
D03*
X015959Y018319D02*
D03*
Y018446D02*
D03*
Y018573D02*
D03*
Y018700D02*
D03*
Y018827D02*
D03*
Y018954D02*
D03*
Y019081D02*
D03*
Y019208D02*
D03*
X014981Y018319D02*
D03*
Y018446D02*
D03*
Y018573D02*
D03*
Y018700D02*
D03*
Y018827D02*
D03*
Y018954D02*
D03*
Y019081D02*
D03*
X007514Y018319D02*
D03*
Y018446D02*
D03*
Y018573D02*
D03*
Y018700D02*
D03*
Y018827D02*
D03*
Y018954D02*
D03*
Y019081D02*
D03*
Y019208D02*
D03*
X006536Y018319D02*
D03*
Y018446D02*
D03*
Y018573D02*
D03*
Y018700D02*
D03*
Y018827D02*
D03*
Y018954D02*
D03*
Y019081D02*
D03*
D21*
X009056Y019208D02*
D03*
X012481D02*
D03*
X014981D02*
D03*
X006536Y019208D02*
D03*
D22*
X009300Y020833D02*
D03*
Y020768D02*
D03*
Y020703D02*
D03*
Y020638D02*
D03*
X009790Y020833D02*
D03*
Y020768D02*
D03*
Y020703D02*
D03*
X013215D02*
D03*
Y020768D02*
D03*
Y020833D02*
D03*
X012725Y020638D02*
D03*
Y020703D02*
D03*
Y020768D02*
D03*
Y020833D02*
D03*
X015225D02*
D03*
Y020768D02*
D03*
Y020703D02*
D03*
Y020638D02*
D03*
X015715Y020833D02*
D03*
Y020768D02*
D03*
Y020703D02*
D03*
X006780Y020832D02*
D03*
Y020767D02*
D03*
Y020702D02*
D03*
Y020637D02*
D03*
X007270Y020832D02*
D03*
Y020767D02*
D03*
Y020702D02*
D03*
D23*
X009790Y020638D02*
D03*
X013215D02*
D03*
X015715D02*
D03*
X007270Y020637D02*
D03*
D24*
X010095Y020543D02*
D03*
X013520D02*
D03*
X016020D02*
D03*
X007575Y020542D02*
D03*
D25*
X010095Y020670D02*
D03*
Y020796D02*
D03*
Y020924D02*
D03*
Y021051D02*
D03*
X008995Y020543D02*
D03*
Y020670D02*
D03*
Y020796D02*
D03*
Y020924D02*
D03*
Y021051D02*
D03*
X012420D02*
D03*
Y020924D02*
D03*
Y020796D02*
D03*
Y020670D02*
D03*
Y020543D02*
D03*
X013520Y021051D02*
D03*
Y020924D02*
D03*
Y020796D02*
D03*
Y020670D02*
D03*
X016020D02*
D03*
Y020796D02*
D03*
Y020924D02*
D03*
Y021051D02*
D03*
X014920Y020543D02*
D03*
Y020670D02*
D03*
Y020796D02*
D03*
Y020924D02*
D03*
Y021051D02*
D03*
X007575Y020669D02*
D03*
Y020796D02*
D03*
Y020923D02*
D03*
Y021050D02*
D03*
X006475Y020542D02*
D03*
Y020669D02*
D03*
Y020796D02*
D03*
Y020923D02*
D03*
Y021050D02*
D03*
D26*
X009371Y014875D02*
D03*
X009181Y016399D02*
D03*
X009371Y016569D02*
D03*
X009181Y018093D02*
D03*
X012796Y016569D02*
D03*
X012606Y018093D02*
D03*
X012796Y014875D02*
D03*
X012606Y016399D02*
D03*
X015106D02*
D03*
X015296Y014875D02*
D03*
X015106Y018093D02*
D03*
X015296Y016569D02*
D03*
X006661Y016398D02*
D03*
X006851Y014874D02*
D03*
X006661Y018093D02*
D03*
X006851Y016569D02*
D03*
D27*
X006893Y013267D02*
D03*
X009725D02*
D03*
X012925D02*
D03*
X015757D02*
D03*
D28*
X008435Y013470D02*
D03*
X007673D02*
D03*
X007927D02*
D03*
X008181D02*
D03*
X007419D02*
D03*
X008689D02*
D03*
X008943D02*
D03*
X009197D02*
D03*
X008054Y013216D02*
D03*
X009324D02*
D03*
X007292D02*
D03*
X007546D02*
D03*
X007800D02*
D03*
X008308D02*
D03*
X008562D02*
D03*
X008816D02*
D03*
X009070D02*
D03*
X007419Y012962D02*
D03*
X007673D02*
D03*
X007927D02*
D03*
X008181D02*
D03*
X008435D02*
D03*
X008689D02*
D03*
X008943D02*
D03*
X009197D02*
D03*
X008562Y013724D02*
D03*
X007800D02*
D03*
X008054D02*
D03*
X007546D02*
D03*
X008816D02*
D03*
X009070D02*
D03*
X014467Y013470D02*
D03*
X013705D02*
D03*
X013959D02*
D03*
X014213D02*
D03*
X013451D02*
D03*
X014721D02*
D03*
X014975D02*
D03*
X015229D02*
D03*
X014086Y013216D02*
D03*
X015356D02*
D03*
X013324D02*
D03*
X013578D02*
D03*
X013832D02*
D03*
X014340D02*
D03*
X014594D02*
D03*
X014848D02*
D03*
X015102D02*
D03*
X013451Y012962D02*
D03*
X013705D02*
D03*
X013959D02*
D03*
X014213D02*
D03*
X014467D02*
D03*
X014721D02*
D03*
X014975D02*
D03*
X015229D02*
D03*
X014594Y013724D02*
D03*
X013832D02*
D03*
X014086D02*
D03*
X013578D02*
D03*
X014848D02*
D03*
X015102D02*
D03*
D29*
X014980Y021884D02*
D03*
X014780D02*
D03*
X014580D02*
D03*
X014180Y021684D02*
D03*
X014380Y021884D02*
D03*
Y021684D02*
D03*
X014180Y021884D02*
D03*
X013180D02*
D03*
X013380Y021684D02*
D03*
Y021884D02*
D03*
X013580D02*
D03*
X013780D02*
D03*
X013980Y021684D02*
D03*
Y021884D02*
D03*
X013580Y021684D02*
D03*
X013780D02*
D03*
X014980D02*
D03*
X014780D02*
D03*
X014580D02*
D03*
X012780Y021884D02*
D03*
Y021684D02*
D03*
X012580Y021884D02*
D03*
Y021684D02*
D03*
X012380Y021884D02*
D03*
Y021684D02*
D03*
X012180Y021884D02*
D03*
Y021684D02*
D03*
X011980Y021884D02*
D03*
X012980D02*
D03*
Y021684D02*
D03*
D30*
X013180D02*
D03*
X011980D02*
D03*
D31*
X011326Y016967D02*
D03*
D32*
X016926Y021567D02*
D03*
Y014367D02*
D03*
X005726D02*
D03*
Y021567D02*
D03*
D33*
X017076Y016467D02*
D03*
Y019467D02*
D03*
X005576D02*
D03*
X005576Y016467D02*
D03*
D34*
X013450Y019350D02*
D03*
X013792Y019335D02*
D03*
X011831Y019760D02*
D03*
X012850Y021100D02*
D03*
X010357Y020796D02*
D03*
X008406Y019760D02*
D03*
X008828Y019760D02*
D03*
X010258Y019633D02*
D03*
Y020014D02*
D03*
X010684Y015571D02*
D03*
Y015696D02*
D03*
X010665Y017391D02*
D03*
Y017516D02*
D03*
X010666Y019633D02*
D03*
Y020015D02*
D03*
X010860Y019208D02*
D03*
X008406Y020141D02*
D03*
Y020924D02*
D03*
X008828Y020141D02*
D03*
Y020546D02*
D03*
X010665Y017266D02*
D03*
Y018319D02*
D03*
X010860Y015446D02*
D03*
X008774Y018446D02*
D03*
Y018573D02*
D03*
Y018827D02*
D03*
Y018954D02*
D03*
Y019208D02*
D03*
X010367Y018446D02*
D03*
X010730Y017141D02*
D03*
Y018573D02*
D03*
X010795Y018954D02*
D03*
X008774Y018319D02*
D03*
Y018700D02*
D03*
Y019081D02*
D03*
X010367Y018701D02*
D03*
Y019076D02*
D03*
Y019335D02*
D03*
X010795Y015821D02*
D03*
X007837Y020796D02*
D03*
X014632Y019887D02*
D03*
Y019475D02*
D03*
X014442Y021057D02*
D03*
X016292Y019335D02*
D03*
X016591Y019633D02*
D03*
X016292Y019076D02*
D03*
Y018701D02*
D03*
Y018446D02*
D03*
X014753Y020546D02*
D03*
X016282Y020798D02*
D03*
X014699Y019208D02*
D03*
Y019081D02*
D03*
Y018954D02*
D03*
Y018827D02*
D03*
Y018700D02*
D03*
Y018573D02*
D03*
Y018446D02*
D03*
Y018319D02*
D03*
X016591Y020015D02*
D03*
X014331Y019760D02*
D03*
X016183Y019633D02*
D03*
Y020014D02*
D03*
X014753Y019760D02*
D03*
Y020141D02*
D03*
X016590Y017266D02*
D03*
X016655Y018573D02*
D03*
Y017141D02*
D03*
X016590Y017391D02*
D03*
Y018319D02*
D03*
Y017516D02*
D03*
X016785Y019208D02*
D03*
Y015446D02*
D03*
X016609Y015571D02*
D03*
X016720Y018954D02*
D03*
Y015821D02*
D03*
X016609Y015696D02*
D03*
X014091Y019633D02*
D03*
X013792Y019076D02*
D03*
Y018701D02*
D03*
Y018446D02*
D03*
X011831Y020924D02*
D03*
X012253Y020546D02*
D03*
X013782Y020798D02*
D03*
X012199Y019208D02*
D03*
Y019081D02*
D03*
Y018954D02*
D03*
Y018827D02*
D03*
Y018700D02*
D03*
Y018573D02*
D03*
Y018446D02*
D03*
Y018319D02*
D03*
X014091Y020015D02*
D03*
X011831Y020141D02*
D03*
X013683Y019633D02*
D03*
Y020014D02*
D03*
X012253Y019760D02*
D03*
Y020141D02*
D03*
X014090Y017266D02*
D03*
X014155Y018573D02*
D03*
Y017141D02*
D03*
X014090Y017391D02*
D03*
Y018319D02*
D03*
Y017516D02*
D03*
X014285Y019208D02*
D03*
Y015446D02*
D03*
X014109Y015571D02*
D03*
X014220Y018954D02*
D03*
Y015821D02*
D03*
X014109Y015696D02*
D03*
X006308Y020546D02*
D03*
X008275Y015821D02*
D03*
X008164Y015696D02*
D03*
X005886Y020923D02*
D03*
X007847Y018445D02*
D03*
Y019075D02*
D03*
Y018700D02*
D03*
Y019335D02*
D03*
X008146Y020015D02*
D03*
X005886Y019760D02*
D03*
Y020141D02*
D03*
X008340Y019208D02*
D03*
Y015446D02*
D03*
X008146Y019633D02*
D03*
X006254Y019208D02*
D03*
Y019081D02*
D03*
Y018954D02*
D03*
Y018827D02*
D03*
Y018700D02*
D03*
Y018573D02*
D03*
Y018446D02*
D03*
Y018319D02*
D03*
X006308Y020141D02*
D03*
Y019759D02*
D03*
X007738Y020014D02*
D03*
Y019633D02*
D03*
X008210Y018573D02*
D03*
Y017140D02*
D03*
X008145Y017265D02*
D03*
Y018319D02*
D03*
Y017515D02*
D03*
Y017390D02*
D03*
X008164Y015571D02*
D03*
X008275Y018954D02*
D03*
D35*
X009750Y020150D02*
D03*
X009352Y019633D02*
D03*
Y020014D02*
D03*
X009759Y019760D02*
D03*
X015277Y019633D02*
D03*
Y020014D02*
D03*
X015684Y019760D02*
D03*
Y020141D02*
D03*
X012777Y019633D02*
D03*
Y020014D02*
D03*
X013184Y019760D02*
D03*
Y020141D02*
D03*
X006832Y019633D02*
D03*
X007239Y020141D02*
D03*
Y019760D02*
D03*
X006832Y020014D02*
D03*
D36*
X010034Y018176D02*
D03*
X010547Y017761D02*
D03*
X010520Y015071D02*
D03*
Y016071D02*
D03*
X010547Y016898D02*
D03*
Y020798D02*
D03*
X010357Y020375D02*
D03*
X009819Y015321D02*
D03*
Y017770D02*
D03*
X016472Y017761D02*
D03*
Y016898D02*
D03*
X016445Y016071D02*
D03*
X015744Y017770D02*
D03*
Y015321D02*
D03*
X016445Y015071D02*
D03*
X016282Y020375D02*
D03*
X016472Y020798D02*
D03*
X015959Y018176D02*
D03*
X013972Y017761D02*
D03*
Y016898D02*
D03*
X013945Y016071D02*
D03*
X013244Y017770D02*
D03*
Y015321D02*
D03*
X013945Y015071D02*
D03*
X013782Y020375D02*
D03*
X013972Y020798D02*
D03*
X013459Y018176D02*
D03*
X008000Y015071D02*
D03*
Y016071D02*
D03*
X008027Y020797D02*
D03*
X007514Y018176D02*
D03*
X007837Y020374D02*
D03*
X008027Y017760D02*
D03*
Y016897D02*
D03*
X007299Y017770D02*
D03*
Y015321D02*
D03*
M02*
